<svg xmlns="http://www.w3.org/2000/svg" viewBox="0 0 391.34 229.75">
  <g id="Layer_2" data-name="Layer 2">
    <g id="Layer_1-2" data-name="Layer 1">
      <g>
        <path d="M391.05,86.74a3.73,3.73,0,0,0-2.37-1.34,9.63,9.63,0,0,0-3.85.34c-5.45,1.71-10.95,3.33-16.26,5.42-6.78,2.67-13.43,5.7-20.1,8.68-4.33,1.93-8.56,4.09-12.87,6.08-1.44.66-3,1.06-4.46,1.7-3.38,1.47-6.39,3.66-9.87,5a100.87,100.87,0,0,0-9.58,4.68q-7.56,3.9-15.06,7.9c-6.27,3.34-12.58,6.63-18.76,10.13-9.19,5.21-18.29,10.57-27.43,15.85a6.6,6.6,0,0,1-2,.85c-7.43,1.32-14.86,2.6-22.3,3.89l-4.4.79c2.29-2.83,4.73-5.38,7.12-8,5.69-6.21,11.35-12.44,17-18.64a9.37,9.37,0,0,1,2.32-2.14,27.21,27.21,0,0,1,4.21-1.47c5.3-1.71,10.59-3.44,15.9-5.1,4.87-1.52,9.78-3,14.66-4.46,2.15-.66,4.28-1.4,6.42-2.11,0-.18,0-.37,0-.55A3.36,3.36,0,0,0,288,114c-7.43,2-14.87,4-22.28,6.18-5.16,1.48-10.27,3.12-15.67,4.77.28-.52.46-.82.61-1.13a42.19,42.19,0,0,0,2.29-4.62,3.49,3.49,0,0,0-3.22-4.87,13.13,13.13,0,0,0-5.23.88,90.6,90.6,0,0,0-10.92,5.14c-4.12,2.38-8,5.19-11.94,7.85-.38.26-.89,1-.78,1.18.54,1.12-.27,1.52-.88,2.06a25.58,25.58,0,0,1-2.75,2.36c-2.69,1.73-5.43,3.37-8.21,5a1.37,1.37,0,0,1-1.31-.34c-.67-1.19.13-4.18,1.2-5.13a13.73,13.73,0,0,0,4.37-6c.38-1.16.45-2.15-.72-2.9s-2.56-.85-3.48.34a40.41,40.41,0,0,0-3.3,5.23c-.7,1.29-.79,3.11-1.78,4a41.6,41.6,0,0,1-6,3.87l-.29-.3a6.38,6.38,0,0,0,.22-.86,46.42,46.42,0,0,0,.74-6c0-1.9-1.31-3.1-3.07-3.75-1.5-.55-3.11-1-4.3.39a48.28,48.28,0,0,0-3.93,5.26c-1.08,1.63-2,3.39-2.94,5.08a1.14,1.14,0,0,1-.17-.84,39.38,39.38,0,0,0,.89-4.78,2.78,2.78,0,0,0-1.1-2,2.08,2.08,0,0,0-2.43-.05,54.23,54.23,0,0,1-7.19,3.7,22.67,22.67,0,0,1-9.45,1.43c.21-.52.35-.88.5-1.24a1.33,1.33,0,0,0-2.13.14,11.46,11.46,0,0,0-1.57,2.43c-1.59,3.62-3.27,7.21-4.57,10.93a41.85,41.85,0,0,0-1.62,7.89,3.07,3.07,0,0,0,1,2.4c2,1.65,3.06,1.55,4.91-.37,3.46-3.61,5.15-8.12,6.28-12.88.57-2.43.82-4.86-.66-7.31a28.13,28.13,0,0,0,14.39-3.74c-.61,2.14-1.1,3.82-1.56,5.52-2.43,8.95-4.87,17.9-7.25,26.86a2,2,0,0,1-1.75,1.64q-17.53,4.22-35.05,8.49c-.42.1-.86.14-1.43.24.21-.67.34-1.12.49-1.55q5.61-15.95,11.21-31.88,7.27-20.83,14.48-41.7,4-11.46,7.86-23c.95-2.81,1.79-5.66,2.62-8.52.3-1,.49-2.15-.91-2.68s-2.71-.28-3.4.92A123.55,123.55,0,0,1,152.6,87.5c-.53.6-1.07,1.19-1.8,2a4.3,4.3,0,0,1,.06-.73q2-6,4-11.9c.26-.78.58-1.29-.79-1.41a1.63,1.63,0,0,0-2,1.21c-.42,1-1,2-1.31,3.09-1.15,3.52-2.37,7-3.29,10.61-.52,2,.42,2.85,2.52,2.66a3.15,3.15,0,0,0,1.93-.88c2.82-3.23,5.56-6.52,8.29-9.82,1.21-1.47,2.33-3,3.49-4.54a3.81,3.81,0,0,1-.23,1.58c-1.85,5.43-3.73,10.86-5.57,16.3Q151,116,144.16,136.43q-6.57,19.71-13,39.45a2.47,2.47,0,0,1-2,1.82C112,182.2,95,187.24,78.22,193.15q-18.63,6.58-37,13.83a276.47,276.47,0,0,0-32.37,15.2C6,223.73,3.33,225.52.67,227.32c-1,.7-.83,1.76.36,2.25a2.51,2.51,0,0,0,1.71.05c3.27-1.23,6.54-2.47,9.75-3.84q18.52-7.91,37-15.88c1.81-.77,3.65-1.46,5.47-2.18-.07-.19-.15-.38-.22-.56-7.45,2.41-14.62,5.59-21.86,8.58s-14.56,6-21.84,9l-.21-.53c37.82-19.09,77.81-32.28,118.81-43.86-4.22,13.13-8.27,25.76-12.35,38.48,1.13.38,1.9.46,2.34-.8,4.36-12.43,8.77-24.85,13.12-37.29a2.17,2.17,0,0,1,1.68-1.61c3.74-.94,7.47-2,11.22-2.88q12.27-3.06,24.55-6.07a1.73,1.73,0,0,1,2,.46c1.45,1.48,2.79,1,3.67-.82a2.45,2.45,0,0,1,1.41-1.24c10-2.27,20.08-4.47,30.13-6.67,1-.23,2.1-.38,3.46-.62-.52.62-.8,1-1.11,1.33-6.11,6.7-12.33,13.31-18.31,20.13a97.54,97.54,0,0,0-6.9,9.44,2.29,2.29,0,0,0,0,2.16c1.71,2.06,3.15,3.27,6.1,1.51,3.48-2.08,6.94-4.2,10.23-6.56,16.2-11.6,32.48-23.06,49.46-33.48,1.69-1,3.44-2.36,5.3-2.64,9.36-1.37,18.74-2.63,28.15-3.54,5.41-.52,10.89-.34,16.34-.34a15.88,15.88,0,0,1,4.24.75c1.07.3,1.54,1.09.82,2.15s-1.4,2.07-2.18,3c-.5.64-.65,1.11.34,1.58.78-.89,1.62-1.76,2.36-2.71,1.55-2,1.27-3.51-.91-4.85a6,6,0,0,0-2.06-.82,49.91,49.91,0,0,0-5.81-.75c-11.23-.55-22.33.87-33.43,2.28l-3.59.42a1.76,1.76,0,0,1,.76-.79c10.9-6.28,21.72-12.72,32.74-18.78,11.6-6.38,23.28-12.62,35.13-18.49,12.94-6.4,26-12.49,39.22-18.37,5.8-2.6,12-4.4,18-6.46a22,22,0,0,1,4-.57c.09.14.17.29.26.44l-3.45,5.23.4.36a3.81,3.81,0,0,0,1-.66c.84-1,1.56-2.05,2.46-3S391.63,87.53,391.05,86.74Zm-226.31,58a24.81,24.81,0,0,1-5.13,10.53,12.85,12.85,0,0,1-1.27,1.17c.45-7,3.09-13.17,5.66-19.39l.45-.17c.31.56.89,1.13.87,1.68A32.6,32.6,0,0,1,164.74,144.73ZM178,165.78l-.68.08a7.42,7.42,0,0,1,.19-1.12c1.37-4,2.59-8,4.2-11.93,2.12-5.16,4.49-10.23,6.89-15.27a54.15,54.15,0,0,1,3.5-6,26.94,26.94,0,0,1,2.38-2.76c.86,1.78.42,3.29.16,4.82a20.49,20.49,0,0,1-2.39,6.14c-.34.64-1.1,1.06-1.66,1.59-1.34,1.27-2.74,2.49-4,3.83-.72.78-1.1,1.78-.16,2.72a2.89,2.89,0,0,0,3.57.55,11.33,11.33,0,0,0,2.26-2.05c1.2-1.51,2.27-3.13,3.41-4.69a2.21,2.21,0,0,1,.68-.68c2.64-1.36,5.29-2.69,7.94-4,1.22,3.7,4.64,4.81,8.29,2.7a26.58,26.58,0,0,0,8.14-6.89c4.13-5.52,10.07-8.47,15.89-11.55,3.48-1.84,7.22-3.2,10.88-4.69a14.32,14.32,0,0,1,2.76-.54c1.11,1.47-.2,2.29-.72,3.08a49.45,49.45,0,0,1-5.51,7.31c-1.11,1.15-3.08,1.5-4.69,2.13-5.4,2.08-10.82,4.11-16.22,6.19a5.82,5.82,0,0,0-1.12.76,3,3,0,0,0,4.64.39,5.53,5.53,0,0,1,1.87-.85q5.4-2,10.8-4a.73.73,0,0,1,.68.11c-.76.84-1.49,1.7-2.27,2.51q-8.44,8.72-16.91,17.43c-2,2.1-4,4.26-6.08,6.34a3.58,3.58,0,0,1-1.63,1Q195.51,162.14,178,165.78Zm65.14-10.66-50.41,33.93-.16-.08c.81-1,1.58-2.07,2.44-3.05q8.59-9.72,17.22-19.41c1.51-1.7,3.11-3.33,4.61-5a6.45,6.45,0,0,1,4-2.28c7.41-1.28,14.8-2.71,22.2-4.07C243.1,155.09,243.24,155.13,243.1,155.12Z" style="fill: #00274c"/>
        <path d="M9.94,87.18a5.74,5.74,0,0,0,5,.27c4.46-1.67,9-3.32,13.31-5.24,7.72-3.38,15.36-7,23-10.46q9-4.11,18.06-8.25A39.4,39.4,0,0,1,79.88,60c5.48-.83,10.93-1.88,16.44-2.45a58.79,58.79,0,0,1,20.56,1c6.36,1.6,11.25,5.11,14,11.22a25.84,25.84,0,0,1,1.88,13.42,28.28,28.28,0,0,1-1.5,7.92c-3.55,8.6-7.43,17.07-11.17,25.6q-7,16.06-14.07,32.14c-3.09,7-6.15,14.1-9.28,21.13-.42.95-.16,1.34.69,1.67a3,3,0,0,0,3.79-1.58c2.41-5.19,4.74-10.42,7.23-15.56,2.25-4.64,4.69-9.19,7-13.78q3-5.82,5.92-11.66c1.65-3.29,3.4-6.54,4.86-9.91,2.28-5.25,4.46-10.54,6.46-15.89,1.24-3.35,2.11-6.83,3.07-10.27.62-2.23.84-4.6,1.68-6.74,2.1-5.33,4.52-10.54,6.69-15.85q6-14.53,11.75-29.14c.45-1.12.43-2.43.91-3.52s1.25-1.72,1.32-3,1.19-2.6,1.43-4c.39-2.24,1.64-3.16,3.74-3.73,6.82-1.84,13.56-4,20.38-5.78a451.15,451.15,0,0,1,47-10.31c11.34-1.78,22.7-3.3,34.22-2.05,3.19.35,6.4.65,9.12,2.69a4.05,4.05,0,0,1,1.93,3.66,14.33,14.33,0,0,1-1.31,5c-2.41,4.59-6.11,8.15-9.93,11.57l-6,5.32c.08.17.15.35.22.52a4.87,4.87,0,0,0,1.64-.53q4.11-3.42,8.14-6.94a35.79,35.79,0,0,0,8.08-9.52c1.3-2.35,1.82-5,.55-7.56-1.09-2.17-3.25-3.31-5.43-4.14-4.87-1.83-10-2.16-15.13-2.24a169.58,169.58,0,0,0-29,2.42,468.67,468.67,0,0,0-46.46,9.93c-6.3,1.64-12.56,3.47-19.39,5.36.32-.88.52-1.42.71-2,1.88-5.24,3.77-10.46,5.61-15.7.62-1.79,1.15-3.61,1.6-5.44.09-.38-.34-.88-.53-1.33-.39.28-.78.56-1.15.86-.1.08-.11.25-.16.38-3,7.67-6,15.34-8.93,23a2.55,2.55,0,0,1-1.8,1.7q-7.67,2.4-15.29,4.93C120.69,38,99.9,46.34,79.29,55.18c-3.26,1.4-6.42,3.15-9.81,4.06a247.36,247.36,0,0,0-52.88,21A70.21,70.21,0,0,0,9.66,84.7C8.36,85.62,8.56,86.4,9.94,87.18ZM156.87,29.06l.41.22Q147.52,53,137.76,76.66l-.32-.14c-.59-1.94-1-4-1.79-5.82-2.88-7-8.35-11-15.29-13.35-8.3-2.78-16.86-2.94-25.47-2.38-2.31.16-4.61.42-7,.5A709.27,709.27,0,0,1,156.87,29.06Z" style="fill: #00274c"/>
        <path d="M214.1,60.55c-3.66,1-7.26,2.29-9.08,6-2.2-.31-2.66-.07-4,1.78-1.75,2.35-3.46,4.75-5.35,7-1.36,1.6-3,3-4.52,4.44l-.57-.32c0-.86.07-1.73.13-2.59.3-4.31,3.62-7.17,5.27-10.84.49-1.1.53-1.94-.53-2.45a2.49,2.49,0,0,0-3.33.83,25.26,25.26,0,0,0-4.33,8.79,8.44,8.44,0,0,1-1.43,3.19c-2.15,2.3-4.51,4.42-6.81,6.58a18.68,18.68,0,0,1-1.81,1.37l-.48-.15a8.36,8.36,0,0,1-.07-2.28c.32-1.33,1.24-2.48,1.06-4a5.58,5.58,0,0,1,.38-2c.43-1.41.88-2.83,1.39-4.22,1-2.8,2.17-5.57,3.17-8.38.56-1.56.89-3.19,1.39-4.77.8-2.51,1.62-5,2.51-7.49.39-1.1-.06-1.51-1.12-1.8-.18.43-.36.8-.5,1.18-2.82,7.7-5.75,15.38-8.4,23.14a86.44,86.44,0,0,0-2.34,10,1.91,1.91,0,0,0,1.3,2.36c.92.26,2.19.54,2.87.11a38.6,38.6,0,0,0,4.62-3.81c.34-.3.54-.76.86-1.1.77-.81,1.58-1.59,2.27-2.29a17,17,0,0,0,2.26,2.25c3.3,2.21,7.92-1.88,9-4.4A5.12,5.12,0,0,1,199.93,74c.93-.41,1-.75.69-1.61l1.14.32c-.1,1.27-.23,2.45-.28,3.63s.56,2.11,1.63,2.19c1.27.09,1.89-.45,2.14-1.76a27.24,27.24,0,0,1,.8-3.58c.74-2.29,1.17-4.77,2.92-6.58a10.12,10.12,0,0,1,3.44-2.69q7.23-2.52,14.61-4.55c8.32-2.3,16.7-4.41,25-6.65,5.51-1.48,11-3.09,16.49-4.6,5.78-1.59,11.56-3.11,17.34-4.7,1.69-.47,3.35-1,5-1.58,0-.16-.06-.32-.1-.48a9,9,0,0,0-1.8,0c-1.14.23-2.25.6-3.38.88-13.85,3.48-27.71,6.91-41.55,10.44Q229.06,56.52,214.1,60.55Z" style="fill: #00274c"/>
      </g>
    </g>
  </g>
</svg>
