<svg xmlns="http://www.w3.org/2000/svg" viewBox="0 0 650 149.57">
  <g id="Layer_2" data-name="Layer 2">
    <g id="Layer_1-2" data-name="Layer 1">
      <path d="M5.17,10.81q66.35-.45,132.69,1c6.89.15,6.89-10.56,0-10.7Q71.53-.34,5.17.11c-6.89,0-6.9,10.75,0,10.7Z" style="fill: #00274c"/>
      <path d="M57.74,7.21a604,604,0,0,0,1.09,66.05q1.06,16.18,2.9,32.32c1.21,10.78,2.57,21.53,2,32.4-.52,9.49,14.24,9.46,14.76,0,.57-10.55-.69-21-1.88-31.45q-1.89-16.59-3-33.27A604,604,0,0,1,72.5,7.21c.42-9.49-14.34-9.47-14.76,0Z" style="fill: #00274c"/>
      <path d="M89.37,64.28c-.5,11.18,0,22.73,7.39,31.76,6.58,8,17.57,10.72,27.57,9.81,10.55-1,20.17-6.21,22.71-17.22,2.5-10.81.76-23-3.24-33.2-1.62-4.15-5.54-7-10.16-5.77-4,1.09-7.41,6-5.78,10.17a49.2,49.2,0,0,1,3.67,19.83c-.08,2.36,0,6-1.87,7.73-1.68,1.58-4.63,1.89-6.79,2-5.09.36-11.09-.36-14.2-4.88-3.93-5.72-3.06-13.74-2.78-20.27.47-10.63-16-10.61-16.52,0Z" style="fill: #00274c"/>
      <path d="M113.73,99.74l1.15,42.13c.28,10.25,16.23,10.29,16,0l-1.15-42.13c-.28-10.25-16.23-10.29-16,0Z" style="fill: #00274c"/>
      <path d="M157.81,54a306.75,306.75,0,0,1,5.59,85c-.3,4.26,4.82,6.61,8.21,4.71,8.36-4.71,19.32,2.85,28,3.74,7.83.81,16.77-2.4,20-10.07,2.71-6.38-6.68-11.95-9.41-5.5-3.52,8.27-14.27,3.81-20.47,1.86-7.92-2.5-16.07-3.69-23.62.55l8.21,4.71a318,318,0,0,0-6-87.92c-1.44-6.86-12-4-10.52,2.9Z" style="fill: #00274c"/>
      <path d="M227.27,47.23q-13.89.33-27.77.92c-10.34.44-10.39,16.57,0,16.12q13.88-.6,27.77-.92c10.35-.24,10.39-16.36,0-16.12Z" style="fill: #00274c"/>
      <path d="M191.92,56.77a281.16,281.16,0,0,1,.25,58.94c-.43,4.27,4.31,6.77,7.89,6a92.27,92.27,0,0,1,31.53-1.14c3.37.44,6.2-3.18,6.23-6.23,0-3.72-2.91-5.79-6.23-6.22a101.76,101.76,0,0,0-34.84,1.58l7.88,6a281.16,281.16,0,0,0-.26-58.94c-.86-7.89-13.32-8-12.45,0Z" style="fill: #00274c"/>
      <path d="M202.93,90.15a34.41,34.41,0,0,1,15.23-2.64c4.91.25,9.34,1.83,14.26.6,7.49-1.87,4.31-13.44-3.19-11.57-2.44.61-5.25-.43-7.68-.72a43.13,43.13,0,0,0-8.5-.22,50.87,50.87,0,0,0-16.17,4.19c-7.08,3-1,13.35,6.05,10.36Z" style="fill: #00274c"/>
      <path d="M251.67,48.68c2.15,23.91,4.36,48.27-.6,72-1.7,8.15,10.81,11.63,12.52,3.45,5.21-25,3.33-50.25,1.06-75.43-.74-8.25-13.73-8.33-13,0Z" style="fill: #00274c"/>
      <path d="M265.48,88.89c10.22-.75,20.47-2.74,28.51-9.5,7.14-6,11-15.37,8.73-24.59C296.83,30.88,262.81,39.64,246.1,43c-6.7,1.33-3.86,11.57,2.82,10.24,8.23-1.64,16.66-3.44,25.05-3.84,6.3-.29,15.5,0,18.13,7C297.86,71.69,276,77.5,265.48,78.27c-6.77.49-6.83,11.12,0,10.62Z" style="fill: #00274c"/>
      <path d="M276.11,82.11c1.17,10.68,2.56,21.4,4.65,32,1.43,7.26,6.7,15.41,15.31,12.37,6.2-2.19,3.53-12.14-2.74-9.92-2.57.9-4-12.74-4.3-14.71-1-6.54-1.91-13.1-2.63-19.69s-11-6.58-10.29,0Z" style="fill: #00274c"/>
      <path d="M356.41,13.77c-1.23,17-2,34.18-3.79,51.16-1.78,16.41-8.52,32.12-13.87,47.62-1.62,4.68,3.34,8.8,7.71,7.71a42.75,42.75,0,0,1,16.74-1c5.35.81,10.43,2.85,15.77,3.74,9.5,1.58,18.63-.49,24.53-8.5,4.79-6.51-6.08-12.77-10.82-6.33s-16.11,1.33-21.87-.09a56.74,56.74,0,0,0-27.68.11l7.71,7.71C356.39,99.79,363,83.77,365,66.76c2.07-17.55,2.72-35.36,4-53,.58-8-12-8-12.54,0Z" style="fill: #00274c"/>
      <path d="M413.36,39.87c-16-1.11-30.61,10.3-32.63,26.37-2.13,17,12.31,29.19,28.75,27.86,14.88-1.2,30.61-10.89,31.47-27.16.72-13.88-16-32-30.5-26.65-6,2.2-3.41,11.89,2.66,9.67,8.95-3.28,19.19,10.5,17.57,18.58-2,10.13-13.56,15.42-23,15.63-10.82.24-19.36-7.61-16.67-18.77,2.5-10.36,12-16.22,22.34-15.51,6.43.45,6.41-9.57,0-10Z" style="fill: #00274c"/>
      <path d="M445.73,46.84q.58,35.73-2.26,71.37c-.67,8.43,12.47,8.39,13.14,0q2.83-35.61,2.26-71.37c-.14-8.45-13.28-8.47-13.14,0Z" style="fill: #00274c"/>
      <path d="M452.33,90.06A28.23,28.23,0,0,0,479,86.9c7.86-5.68,11.69-14.53,12.44-24.05,1.77-22.21-26.07-24.15-41.92-24-7.05.07-7.07,11,0,11,8.39-.08,31-1.2,31,11.43,0,14-12.11,23.38-25.35,18.24-6.58-2.56-9.43,8-2.91,10.57Z" style="fill: #00274c"/>
      <path d="M529.85,42.69c-4.93-.31-9.87-.52-14.81-.59-3.37-.05-7.71-.65-11,.52-7.66,2.75-5.83,15.22-6.23,21.57Q496,93.62,494.09,123c-.19,3,2.73,5.69,5.62,5.62a177.2,177.2,0,0,1,32.13,2c7.07,1.12,10.11-9.7,3-10.83a193.75,193.75,0,0,0-35.11-2.42l5.61,5.61,3.12-49c.14-2.18,2.26-23.3,1.49-23.54q-4.73,3.6-.45,2.84h1.85c1.86,0,3.71,0,5.56.06,4.33.09,8.65.29,13,.56,7.22.46,7.19-10.77,0-11.23Z" style="fill: #00274c"/>
      <path d="M505.55,88.6c9.28-1.31,18.49,2.24,27.9,1,6.95-.94,4-11.49-2.91-10.56-9.31,1.25-18.48-2.31-27.9-1-7,1-4,11.54,2.91,10.56Z" style="fill: #00274c"/>
      <path d="M558.63,50.07a17.69,17.69,0,0,1-1.35-8.79l-6,6c31.5.36,63.05.46,94.22-4.78l-5.85-10a1184.73,1184.73,0,0,0-97.32,105c-4,4.91,1.11,13.42,7.29,9.44,15.84-10.2,35.67-2.5,52.78-.81,16,1.58,33.88-2.39,42.55-17.22,3.91-6.7-6.48-12.76-10.38-6.07-8.74,15-29.09,12-43.36,9.59-16-2.74-33.21-5.18-47.66,4.13l7.28,9.44A1183.22,1183.22,0,0,1,648.14,41c4.7-4.5-.33-11-5.85-10-30.06,5-60.65,4.69-91,4.35-3.46,0-5.73,2.8-6,6a25.33,25.33,0,0,0,1.77,12c2.88,7.07,14.51,4,11.6-3.2Z" style="fill: #00274c"/>
      <path d="M563.38,97.76c17.61,2,35.56.72,53.23.34,4.78-.11,4.79-7.54,0-7.44-17.67.39-35.62,1.67-53.23-.33-4.74-.55-4.7,6.89,0,7.43Z" style="fill: #00274c"/>
    </g>
  </g>
</svg>
