<svg xmlns="http://www.w3.org/2000/svg" viewBox="0 0 457.47 190.35">
  <g id="Layer_2" data-name="Layer 2">
    <g id="Layer_1-2" data-name="Layer 1">
      <path d="M457.37,33.13c-1.81.16-3.63.26-5.43.49q-9,1.16-18.08,2.39-7.12,1-14.24,2.08c-2.93.46-5.84,1.06-8.77,1.56-3.87.67-7.75,1.33-11.63,1.94-1,.17-2.11,0-3.13.24-1.42.28-2.8.8-4.22,1.1-.68.15-1.44,0-2.14.08-.39.05-.73.47-1.12.51-1.63.18-3.27.24-4.9.44-.38,0-.92.79-1,.71-1.11-.8-2.12.07-3.16.12-.52,0-1,.5-1.55.67a3.6,3.6,0,0,1-1.31.16c-.38,0-.78-.29-1.13-.22-5.57,1.15-11.14,2.33-16.72,3.5-.73.15-1.47.23-2.3.36,1.24-2.44,2.43-4.64,3.48-6.9,1.19-2.54-.55-5.06-3.35-4.55a29.13,29.13,0,0,1-12.33-.58c-2.09-.51-2.69.07-3.13,2.24a48.78,48.78,0,0,1-7.9,19.1,20.18,20.18,0,0,1-11.75,8.05,2.44,2.44,0,0,1-2-.5c-1.68-1.73-1.23-6.55.61-8.14.87-.75,1.73-1.53,2.53-2.37a38,38,0,0,0,5.44-7.39,3.24,3.24,0,0,0,.54-3,2.9,2.9,0,0,0-3.5-1.37,10.34,10.34,0,0,0-3.45,2,25.56,25.56,0,0,0-7.18,13.92c-.07.39-.16.91-.43,1.1-2.21,1.59-4.47,3.12-6.85,4.75,0-.36,0-.51,0-.61,3.38-7.35,2.33-15,1.65-22.67a4,4,0,0,0-3-2.95c-1.79-.4-2.36.78-2.94,2-3.12,6.62-6.27,13.23-9.32,19.88q-3.92,8.55-7.64,17.19c-.58,1.35-1.48,1.57-2.81,1.42.63-2.77,1.29-5.42,1.84-8.1,1.06-5.1,2.06-10.21,3.05-15.32A1.78,1.78,0,0,0,287,54.18c-2-.92-2.06-1-3.64.42a11.21,11.21,0,0,1-6,3,1,1,0,0,1-1.37-.71,5.8,5.8,0,0,0-9.64-1.38c-.54.65-.67,1.19-.13,1.85l.65.84c-1,2.19-1.9,4.28-2.9,6.32a50.46,50.46,0,0,0-4.28,13.27c-.45,2.46.53,4.31,2.71,5a11.24,11.24,0,0,0,2.68.24,1.86,1.86,0,0,1-.53.26q-7,1.29-14,2.56c-1.91.34-3.82.64-5.9,1,.16-.8.2-1.34.36-1.84q2.19-6.55,4.42-13.09c1-3,2-6,3-9,.47-1.41.86-2.84,1.33-4.25.56-1.71,1.2-3.38,1.73-5.1q2.86-9.12,5.67-18.28c.45-1.48.71-3,1.17-4.51.37-1.2-.2-1.81-1.13-2.33-1.2-.66-1.44.33-1.77,1.07q-4,9-8,18.05c0,.07.1.21.24.5l2.71-4.64a2.66,2.66,0,0,1-.11,1.24q-6.36,20.78-12.7,41.55c-.35,1.19-1.09,1.44-2.1,1.62-4.73.82-9.46,1.68-14.19,2.52l-11,2c.05-.14.1-.29.16-.44l-1.63-1.08-.41.05c.45-4,.91-8,1.34-12,.37-3.54.72-7.13-1.28-10.33a3.54,3.54,0,0,1-.43-3.57,2.75,2.75,0,0,0-.64-3.45,5.4,5.4,0,0,0-6.51.11c-.73.58-.77,1.17-.22,1.77.74.82,1.59,1.56,2.39,2.32.45.43.8.75.41,1.52-3.37,6.63-7.12,13-12.69,18a18,18,0,0,1-7.18,4.41c-.78.21-1.43.22-1.9-.63a1.48,1.48,0,0,1,.32-2,26.47,26.47,0,0,0,1.84-2.11,27.56,27.56,0,0,0,6.31-16.24,2.56,2.56,0,0,0-1.71-2.73,3.23,3.23,0,0,0-3.93.84A19.21,19.21,0,0,0,184,73.57c-1.81,4.37-3.15,8.84-2.19,13.68a1.47,1.47,0,0,1-.52,1.13c-2,1.63-4,3.26-6,4.78A28.16,28.16,0,0,1,172.1,95l-.37-.31c.35-1.13.62-2.3,1.07-3.39,3.24-7.87,6.68-15.67,9.73-23.61,2.62-6.82,4.85-13.8,7.17-20.73.59-1.76,0-2.39-1.93-2.4-.68,2.14-1.34,4.32-2.05,6.47-3.43,10.41-7.55,20.55-11.88,30.61-1.66,3.87-3.11,7.82-4.71,11.71a2.08,2.08,0,0,0,.56,2.4,3.24,3.24,0,0,0,3.71.86,21.25,21.25,0,0,0,4.43-2.32c1.91-1.3,3.67-2.83,5.55-4.3,2.54,2.23,5.37,2.29,8.31.88a28.62,28.62,0,0,0,10.09-8.43c2.85-3.63,5.3-7.58,7.93-11.4a12.59,12.59,0,0,1,.25,1.94c0,4.36-.12,8.72-.15,13.07,0,2.43,0,4.85,2.07,6.78l-50.41,9.35c.65-1.68,1.19-3,1.71-4.39,1.09-2.87,2.14-5.77,3.28-8.62,1.07-2.67,2.28-5.28,3.33-7.95,1.2-3.05,2.32-6.14,3.43-9.22.63-1.74,1.23-3.49,1.72-5.27a1.73,1.73,0,0,0-.4-1.47,3.05,3.05,0,0,0-3.85.28c-2.32,2.6-4.71,5.14-6.89,7.85-3.43,4.27-6.7,8.68-10.08,13-1.33,1.7-2.78,3.31-4.17,5l-.35-.2c2.31-7.12,5.25-14,8.19-20.88-2.39-1.32-2.78-1.26-3.86,1-1.42,3-2.81,6-4,9.09-1.58,3.94-3.05,7.93-4.44,11.94a4.41,4.41,0,0,0,0,2.64c.11.34,1.15.37,1.76.54a1.19,1.19,0,0,1,.25.13,1.82,1.82,0,0,0,2.5-.39,34.59,34.59,0,0,0,2.62-2.51c1.61-1.86,3.16-3.79,4.68-5.72,2.56-3.25,5.08-6.54,7.63-9.8,1.33-1.68,2.71-3.33,4.07-5a1,1,0,0,1,.06.93c-4,9.72-8,19.45-12.07,29.15a2,2,0,0,1-1.32.93c-6.51,1.24-13,2.43-19.53,3.63-2.65.48-5.3.94-8.08,1.43a4.72,4.72,0,0,1,.17-.94c1.76-4.17,3.56-8.32,5.3-12.5,3.38-8.12,6.76-16.24,10.06-24.4,1.84-4.58,3.54-9.21,5.27-13.83,2.23-6,4.53-12,6.58-18.06A3.37,3.37,0,0,1,158,36c12.85-2.85,25.69-5.79,38.52-8.71q18.19-4.12,36.39-8.27,16.2-3.69,32.39-7.44,13.19-3.08,26.34-6.27c3.79-.93,7.55-2,11.29-3.05,2.24-.65,4.42-1.48,6.63-2.23C258.81,11.7,207.87,22.18,157,33.42a1.93,1.93,0,0,1,0-.51c1-3.3,2.08-6.57,3-9.89a2.28,2.28,0,0,0-.68-2c-.82-.51-1.09.48-1.39,1.09s-.74,1.39-1,2.12c-1.1,3-2.14,6.11-3.28,9.13a2,2,0,0,1-1.18,1.06c-5.07,1.2-10.16,2.35-15.25,3.49q-10.84,2.41-21.68,4.8c-7.74,1.7-15.46,3.47-23.24,5-4.6.89-9,2.47-14,1.66-12-2-24.08-1.43-36.1.28A237.16,237.16,0,0,0,9.72,56.73C6.81,57.56,4,58.6,1.14,59.67c-.52.2-1.19,1-1.14,1.48s.83,1.13,1.4,1.28a15.45,15.45,0,0,0,4.24.68c5-.1,10-.07,15-.62,9.76-1.09,19.52-2.33,29.21-3.9,11.39-1.85,22.71-4.12,34.07-6.18a4.19,4.19,0,0,1,1.93,0c3,.9,6.07,1.75,9,2.87a35.52,35.52,0,0,1,12.92,8.14c6.29,6.39,9,14.35,9.78,23.06a81.44,81.44,0,0,1-1.51,22.67,1.61,1.61,0,0,1-1.57,1.54c-2,.31-4,.66-5.93,1-14,2.48-28,5-42,7.44-12.46,2.14-24.95,4.08-37.41,6.21-4.54.78-9,1.83-13.55,2.82a9.76,9.76,0,0,0-2.07,1c0,.18.09.37.13.55a16.14,16.14,0,0,0,3.5.3c6.6-.88,13.18-1.95,19.79-2.81,12.8-1.68,25.6-3.5,38.44-4.82,10.61-1.09,21.29-1.56,32-2.25,2-.13,4,0,6.17,0-.15.63-.23,1.12-.37,1.59-1.62,5.3-3.28,10.59-4.86,15.9-.89,3-1.66,6-2.5,9-.24.85.11,1.6.88,1.55,1.85-.12,3.65-.33,4.56-2.49,1.8-4.26,3.81-8.43,5.68-12.66,1.74-3.93,3.38-7.9,5.14-11.81a1.7,1.7,0,0,1,1.29-.84c6.62.36,13.23.83,19.65,2.63,1.59.45,3.13,1.1,4.79,1.69L145,132.06c-5.2,13.83-10.17,27.74-14,42a67.49,67.49,0,0,0-1.4,8.65c-.14,1.13.64,1.72,1.73,1.69,1.53,0,3.07-.1,4.2-1.41s2.48-2.55,3.51-4c2.91-4,5.86-8.07,8.54-12.26,4.73-7.41,8.78-15.16,10.67-23.84,1.44-6.63.78-12.64-5.3-17a1.47,1.47,0,0,1-.38-1.27,38.79,38.79,0,0,1,1.35-4.07c1.66-4.2,3.3-8.4,5.11-12.53.51-1.17.57-2.86,2.58-3a51,51,0,0,0,5.76-.89q12.39-2.2,24.76-4.45L218.62,95l17.14-3.18c1.3-.24,2.61-.4,4.16-.63L239,93.64h0c-.17.5-.34,1-.5,1.51l-5,14.79c1.23.69,1.66-.15,2-1,1.2-2.84,2.43-5.68,3.58-8.54l1.28-3L242.7,92l0-.12c.07-.18.14-.35.22-.52l0-.06a1.93,1.93,0,0,1,1.5-1c9.51-1.67,19-3.47,28.5-5.21,1.51-.27,3.05-.47,4.74-.72-.15.7-.23,1.16-.35,1.6-2.05,7.25-4.12,14.5-6.14,21.76-.66,2.38-1.27,4.77-1.78,7.18-.11.49.16,1.43.51,1.58a3.15,3.15,0,0,0,4.18-1.61q1.35-2.73,2.57-5.5,5.59-12.82,11.14-25.66a2.55,2.55,0,0,1,2.05-1.77q7.38-1.29,14.75-2.65,16.51-3.06,33-6.15,14.94-2.79,29.88-5.57c10.06-1.88,20.12-3.78,30.18-5.64a3.53,3.53,0,0,1,1.9.19c13.45,5.65,20.63,16.56,18.16,31.88-1.43,8.85-5.27,16.73-10.28,24.08a140.4,140.4,0,0,1-24.69,27,187.49,187.49,0,0,1-54.13,32.92c-14.39,5.68-29.25,9.16-44.79,9.41-9.51.14-18.8-.91-27.72-4.41-11-4.31-19.48-11.34-23.86-22.61A46.91,46.91,0,0,1,229.68,135a34.44,34.44,0,0,1,11.46-21c1.74-1.51,3.51-3,5.28-4.49-.66-.79-1.25-.57-1.86-.08-2.42,2-4.93,3.83-7.26,5.9-6.94,6.15-10.42,14.14-11.8,23.12a45.67,45.67,0,0,0,.43,14.75,46.56,46.56,0,0,0,6.15,16.65,35.81,35.81,0,0,0,12.46,11.82c9.78,5.85,20.55,8.17,31.79,8.57a134,134,0,0,0,47-7.05,183,183,0,0,0,52.78-27.6c13.26-9.92,25.31-21.1,34.63-34.94,5.5-8.17,9.47-17,10.37-26.91a30.34,30.34,0,0,0-2.57-16.11c-3.3-7-8.72-11.87-15.42-15.47l-1.67-1L417,58.17a1.64,1.64,0,0,0-2.1-1.07c-4.87.84-9.73,1.68-14.61,2.4a11.38,11.38,0,0,1-3.67-.22c-4.06-.77-8.07-2-12.17-2.41-11.14-1.08-22,.69-32.64,4.05-1.79.57-3.55,1.23-5.42,1.89.07-.31.06-.48.14-.57,2.36-3,4.71-6.09,7.14-9.07A3.57,3.57,0,0,1,355.45,52c3.24-.82,6.51-1.5,9.76-2.3,1.52-.37,3-1,4.51-1.3s3.18-.34,4.74-.66c2.65-.55,5.26-1.3,7.91-1.85,1.85-.37,3.75-.48,5.61-.82,3.53-.66,7-1.44,10.58-2.11,5.73-1.07,11.45-2.14,17.19-3.13q7.13-1.23,14.27-2.27c8.82-1.28,17.65-2.48,26.47-3.73a6,6,0,0,0,1-.28C457.44,33.43,457.41,33.28,457.37,33.13ZM326.45,45.89c-.86,4.22-3.53,7.28-6.53,10.11C321.23,52.08,322.93,48.41,326.45,45.89ZM191,68.68c.61,3.28-2.3,11.76-5.84,15.09A26.88,26.88,0,0,1,191,68.68ZM6.73,60.82c22.46-7.09,45.16-12.52,69-9.9C52.86,55.34,30.08,60.08,6.73,60.82ZM114,118.21c-.09.3-.76.58-1.18.59-5.5.17-11,.09-16.49.46-9.53.64-19,1.54-28.56,2.33-1.33.11-2.65.25-4,.24l51.46-8.53C114.79,115.1,114.46,116.68,114,118.21Zm2.47,6.68-.36-.14c.76-1.48.44-3.39,1.7-4.67l.58.3Zm1.33-6.11a36.12,36.12,0,0,1,1.33-5.49c.26-.65,1.56-.88,2.67-1.46C120.83,115.77,119.08,118.85,117.78,118.78Zm2-9c.31-2,.68-3.74.83-5.5.35-4.08.66-8.18.86-12.27A42.45,42.45,0,0,0,120,79.1c-2.13-8.1-6.31-14.84-13.3-19.72a57.7,57.7,0,0,0-16.65-7.69c-.12,0-.24-.1-.63-.27l62.73-14c-.54,1.52-1,2.9-1.53,4.26C146.27,52.79,142,63.92,137.45,75s-9.18,22-13.74,33C122.93,109.84,121.3,109.21,119.78,109.76Zm36,24.49c.84,4.62-.34,9-1.81,13.28a88.67,88.67,0,0,1-9.84,19.21c-2.58,4-5.51,7.72-8.29,11.55-.32.44-.69.84-1,1.26l-.35-.17c4.37-17.77,10.65-34.92,17.19-52.17A10.73,10.73,0,0,1,155.75,134.25Zm-7.51-10.76c-8.15-3-16.58-3.79-25.27-4.38.4-1.11.73-2.17,1.15-3.2s1.12-2.14,1.48-3.27a2.08,2.08,0,0,1,1.91-1.51q13-2.25,26-4.54a10.45,10.45,0,0,1,1.39,0C152.64,112.31,150.45,117.86,148.24,123.49Zm123.82-68c.3.83.49,1.38.78,2.18l-2.69-.22L270,57Zm-8.82,25.12a19.82,19.82,0,0,1,0-3.62,68,68,0,0,1,5.35-16.77c.44-.92.89-1.28,1.9-1a13.73,13.73,0,0,0,2.17.29C273.31,64.86,268.55,77.81,263.24,80.61Zm15,.23c-4.31.75-8.64,1.44-13,2.14,3.67-1.67,5.72-4.85,7.38-8.27a40.79,40.79,0,0,0,4.05-14.88l7-1.75c-.46,2.22-.88,4.44-1.37,6.65q-1.69,7.6-3.45,15.21C278.74,80.28,278.45,80.8,278.2,80.84Zm2.16,10.73-.26-.09c.7-2.53,1.36-5.08,2.16-7.58.13-.4.9-.6,1.37-.89l.29.34ZM292.7,72.83c2.47-5.46,4.94-10.92,7.46-16.36,1.58-3.39,3.23-6.74,4.85-10.11l.25.08c0,2.56.19,5.15-.05,7.69a33.82,33.82,0,0,1-3.06,11.79c-1.58,3.25-3.52,6.23-6.86,8a3,3,0,0,1-1.3.46,2.23,2.23,0,0,1-1.34-.43C292.47,73.79,292.55,73.16,292.7,72.83ZM351,63.57a89.92,89.92,0,0,1,33.81-4.8c3.06.18,6.11.78,9.16,1.19,0,.19,0,.38,0,.58L338,70.3l-.31-.53a3.77,3.77,0,0,0,.73-.35C342.15,66.52,346.58,65,351,63.57Zm4.1-20.8c-1.22,2.31-2.4,4.64-3.75,6.87a4.12,4.12,0,0,1-2,1.49c-1.29.5-2.71.68-4,1.17-.48.17-.77.83-1.14,1.28.61.27,1.22.78,1.83.78a9.92,9.92,0,0,0,2.44-.61l.31.41C345.88,58.07,343,62,340,65.85c-.85,1.06-2.24,1.67-3.25,2.62a6,6,0,0,0-.9,1.83l.35.31L290,78.81c.63-1.43,1.15-2.6,1.7-3.86,4.27,1.57,7.54-.36,10.3-3.16A58,58,0,0,1,313.43,63c.27-.16.56-.3.94-.51a18.1,18.1,0,0,0,.51,2.08c1.13,3,5,5,8.52,4.37a20.65,20.65,0,0,0,12.69-8.07c4.26-5.41,6.38-11.84,8.36-18.31.29-1,.55-1.94.77-2.72l10.7,1.08C355.7,41.39,355.47,42.11,355.12,42.77Z" style="fill: #00274c"/>
    </g>
  </g>
</svg>
