<svg xmlns="http://www.w3.org/2000/svg" viewBox="0 0 323.57 216.95">
  <g id="Layer_2" data-name="Layer 2">
    <g id="Layer_1-2" data-name="Layer 1">
      <g>
        <path d="M321.25,84.14A26.91,26.91,0,0,0,311,77.06c-6.31-2.4-12.89-3-19.5-3.43-3.63-.23-7.28,0-11,0,.56-1.79,1.11-3.33,1.53-4.91.72-2.67-1.35-5.15-4-4.49a38,38,0,0,0-8.59,3c-4.65,2.44-9.06,5.32-13.59,8a10.55,10.55,0,0,1-1.82.63c1.74-2.4,3.83-4.33,5.32-6.64,2.28-3.51,5.53-5,9.36-6,4.19-1.1,8.28-2.51,12.42-3.79l0-.14L264.5,63.08c.63-1.33,1.2-2.31,1.59-3.36a2.43,2.43,0,0,0-2.57-3,12.86,12.86,0,0,0-3.09,1,43.49,43.49,0,0,0-16.2,13.82c-1.7,2.35-3.89,3.13-6.45,3.47A2.46,2.46,0,0,1,235,73.09c-.38-1.29-1-2.66.67-3.72a11.64,11.64,0,0,0,5-6c.21-.62.14-1.87-.18-2a3.16,3.16,0,0,0-2.55-.18,12,12,0,0,0-5.33,7.17A3.43,3.43,0,0,1,230,71.2a21.12,21.12,0,0,0-2.13.84c.23-1.6.53-3,.63-4.44.14-2.12.16-4.25.2-6.38a1.92,1.92,0,0,0-1.82-2.13c-.41,0-1,.94-1.33,1.55-2.49,4.46-4.94,9-7.4,13.43l-.42-.19c.43-1.62.92-3.23,1.27-4.87.16-.75.39-1.82,0-2.29a2.28,2.28,0,0,0-2.78-.61,15.67,15.67,0,0,1-3.62.86c-3.1.49-6.22.91-9,1.3-.34.86-.59,1.54-.88,2.19-1.59,3.68-3.24,7.32-4.77,11a2.26,2.26,0,0,0,.84,3c1.22.79,2.41,1,3.51-.22.78-.82,1.64-1.58,2.33-2.46,3.09-4,3.37-8.53.8-12.33l11-1.92c-.55,1.89-1.08,3.66-1.56,5.44-.92,3.39-1.78,6.8-2.73,10.19a1.73,1.73,0,0,1-1,1c-3.58,1.12-7.2,2.09-10.76,3.25q-7.53,2.43-15,5.07c-3.12,1.11-6.18,2.4-9.47,3.69a5.87,5.87,0,0,1,.26-1c2.25-4.19,4.54-8.36,6.77-12.55,1.52-2.85,3-5.7,4.46-8.59,1.12-2.24,2.1-4.54,3.17-6.81,2.34-5,4.86-9.85,7-14.89,3.07-7.2,5.86-14.52,8.82-21.77a1.63,1.63,0,0,1,1.12-.91c8.44,0,16.94-.58,25.19,1.93-8-3.35-16.65-3.14-25.3-3.75,1.9-5.18,3.73-10.12,5.5-15.07,1.21-3.41,2.36-6.84,3.48-10.28.3-.92.51-2-.92-2.56a14.41,14.41,0,0,0-.71,1.48c-.93,2.52-1.8,5.07-2.77,7.57-2.27,5.87-4.6,11.71-6.87,17.57a1.77,1.77,0,0,1-2,1.28q-8,0-15.92.25c-4.35.14-8.7.39-13,.65-4.88.3-9.76.58-14.63,1-3.9.36-7.78,1-11.67,1.49-3.49.42-7,.71-10.49,1.19-5,.68-9.94,1.47-14.91,2.22-1.08.17-2.17.37-3.33.57.39-2,.81-3.76,1.09-5.58a13.26,13.26,0,0,0-.79-7.87c-1.74-3.69-5.12-5.29-8.72-6.5-5.3-1.78-10.74-1.22-16.16-.82a36.52,36.52,0,0,0-5.22.66c-4.68,1-9.35,2.13-14,3.26-3.49.85-7,1.65-10.43,2.73q-8.57,2.68-17,5.73C43,28.75,37.9,30.66,33,32.8s-10,4.55-14.84,7c-3.95,2-7.83,4.21-11.62,6.51A17.28,17.28,0,0,0,.54,51.67c-.89,1.42-.71,2.77.79,3.49A18.2,18.2,0,0,0,5.89,56.6c4.31.76,8.56-.19,12.83-.7,1-.12,2-.13,2.92-.3Q29.31,54.24,37,52.81c3-.57,6-1.23,9-1.85,1.51-.3,3-.61,4.52-.87,2-.34,4.08-.57,6.1-1,3.92-.78,7.82-1.69,11.75-2.44,2.38-.46,4.82-.63,7.2-1.09,3.66-.7,7.28-1.63,10.94-2.3,2.69-.49,5.44-.63,8.14-1.07,4.53-.74,9-1.62,13.57-2.4,1.88-.31,3.77-.51,5.89-.79-1.45,3.3-2.71,6.39-4.16,9.37-1.92,4-3.94,7.85-6,11.73-3.34,6.25-6.75,12.46-10.13,18.68s-7,12.55-10.26,18.92-6.24,12.63-9.33,19c-.18.38-.39,1.09-.22,1.24a1.9,1.9,0,0,0,1.49.57,2.65,2.65,0,0,0,1.15-1.32c3.14-5.81,6.21-11.66,9.36-17.47,2.84-5.22,5.76-10.39,8.64-15.58,3.06-5.53,6.15-11,9.18-16.6,3.14-5.74,6.32-11.46,9.28-17.29,1.71-3.39,3-7,4.52-10.49.25-.57.68-1.4,1.15-1.49,2.8-.56,5.62-1,8.46-1.36,5.42-.71,10.85-1.34,16.28-2,2.93-.36,5.86-.74,8.8-1.07a22.53,22.53,0,0,1,2.35,0l-1,1.18c-2,2.32-4.1,4.52-5.87,7a155.34,155.34,0,0,0-13.61,22.89c-1.9,4-3.9,7.9-5.43,12-1.33,3.61-2.78,7-5.67,9.66,0,0,0,.19,0,.85l2.76-2c-.15,2-.39,3.93-.45,5.89-.11,3.91,2.55,5.85,6.4,4.78,2.26-.63,4.26-2.41,6.18-3.93,1.09-.86,1.8-2.17,3.46-1.13.19.12.64,0,.88-.16a31.44,31.44,0,0,0,3.16-2.16c1.85-1.54,3.61-3.19,5.4-4.79a10.81,10.81,0,0,0-1.2,2.63c-.5,1.13.06,1.4,1,1.78s1.31,0,1.59-.79a29,29,0,0,1,1.05-2.73c1-2.23,2.27-4.32,4.57-5.48,1.78-.9,3.59-1.74,5.21-2.52a10.66,10.66,0,0,0-9.57,2.89,2.46,2.46,0,0,1-.78.32,4.69,4.69,0,0,0-1.53.63c-1.92,1.89-3.72,3.91-5.68,5.77-1.31,1.24-2.82,2.28-4.23,3.41-.14-.14-.28-.28-.41-.43l1.64-2.15c2.47-3.27,5.18-6.43,5.42-10.8,0-.54-.3-1.5-.63-1.58a2.39,2.39,0,0,0-2,.37,24.59,24.59,0,0,0-6.18,11c-.46,1.74-.87,3.3-2.34,4.51-2.35,1.93-4.51,4.12-8,4.72a17,17,0,0,1-.77-3.73,27.4,27.4,0,0,1,.73-6.13,18.58,18.58,0,0,1,2.41-6.1c2.94-4.15,6.4-7.93,9.38-12,5.08-7,10.09-14.1,14.86-21.33C158,42,161,38,162.14,33.08a.9.9,0,0,1,.68-.48c3.05-.23,6.1-.4,9.15-.63,5.39-.42,10.78-.89,16.17-1.32,2.63-.21,5.27-.45,7.91-.55s5.13,0,7.78,0c-1.73,4.14-3.41,8.4-5.3,12.57C194.78,50.94,191,59.23,187,67.42c-2.83,5.86-6,11.58-9,17.35-1.78,3.41-3.62,6.79-5.33,10.23a3.07,3.07,0,0,0-.2,2.22c.38,1,3.36,1.86,4.47,1.45,2.78-1,5.52-2.2,8.33-3.16,7.37-2.52,14.77-5,22.17-7.41a27.55,27.55,0,0,1,3.3-.69c-.85,5.36-1.69,10.61-2.52,15.87l.67.12a4.45,4.45,0,0,0,.32-.66c1.67-5.11,3.31-10.23,5-15.33.15-.45.55-1,.95-1.15,4.84-1.25,9.67-2.57,14.56-3.58,5.19-1.08,10.45-1.92,15.7-2.72,1.11-.16,2.45-.86,3.49.16a2.17,2.17,0,0,0,3.28.21,10.78,10.78,0,0,1,5.8-2.24c3.36-.22,6.71-.62,10.07-.92,2.24-.2,4.48-.37,7.07-.58-1.07,2-2,3.69-2.9,5.42-1.39,2.72-2.74,5.46-4.12,8.18-2,3.88-4,7.73-5.9,11.65-2.37,5-4.6,10-6.87,14.94-1.44,3.18-3.08,6.28-4.25,9.56-2.39,6.7-4.71,13.45-6.71,20.27a75.19,75.19,0,0,0-2.88,25.46c.17,3,1,6,2.14,7.59-1.32-3.76-1.2-7.49-.83-11.15.79-7.88,3-15.47,5.36-23,1.1-3.43,2.39-6.79,3.62-10.17,1.15-3.16,2.27-6.33,3.52-9.44,1.07-2.63,2.33-5.19,3.49-7.79,1-2.3,2-4.64,3.08-6.9,2.9-6,5.86-11.91,8.8-17.86,2.65-5.37,5.28-10.75,8-16.11a1.72,1.72,0,0,1,1.25-.78c3.53-.11,7.07-.27,10.6-.12,4.59.19,9.2.44,13.74,1.06a35,35,0,0,1,12.34,4.14,8.56,8.56,0,0,1,4.07,4.57c1.09,3.08.38,6-1,8.8A29.5,29.5,0,0,1,312,104a97.81,97.81,0,0,1-18.67,12.16l-9,4.63c9-3.66,17.73-7.77,25.73-13.28,5.2-3.59,10.19-7.42,12.8-13.53A9.38,9.38,0,0,0,321.25,84.14ZM238.85,62.3a6.18,6.18,0,0,1-3.76,5.48C236.39,65.89,237.54,64.22,238.85,62.3Zm-33.38,9.61c.94,3.76-1.89,9.64-5.62,11.55.73-4.64,3-8.6,4.72-13.19A8.9,8.9,0,0,1,205.47,71.91Zm-89.76-38c-.43,1.55-1.12,2.08-2.78,2.3C107.29,37,101.7,38.05,96.1,39q-4.86.82-9.7,1.71c-4.07.73-8.13,1.46-12.19,2.24-5.66,1.09-11.3,2.25-17,3.34-5,1-10.09,1.86-15.12,2.87-3.72.74-7.4,1.67-11.12,2.41-2.39.47-4.82.76-7.23,1.13h0c-1.4.21-2.8.46-4.2.64C15,53.91,10.43,54.48,5.85,55a2.47,2.47,0,0,1-1.64-.66c-.15-.12.09-1,.38-1.31a27.57,27.57,0,0,1,3.76-3.8,67.18,67.18,0,0,1,5.86-3.61c2-1.18,3.9-2.43,5.94-3.48,2.8-1.44,5.66-2.8,8.55-4.06,5.58-2.42,11.18-4.8,16.81-7.09,3.59-1.46,7.22-2.85,10.9-4.06,6.26-2.06,12.53-4.12,18.88-5.87a142.7,142.7,0,0,1,16.27-3.69c6.44-1,12.94-1.89,19.52-.58,2.31.46,5,3.28,5.49,5.13C117.75,26,116.81,30,115.71,33.94Zm30.38,42.74c.35,1.94-.75,4-3.66,7.67l-.29-.23Q144.1,80.4,146.09,76.68Zm-13.5-1.38-.38-.19c1-2.25,2-4.52,3.14-6.72,2.15-4.24,4.24-8.52,6.6-12.64,4.24-7.39,8.7-14.64,14.79-20.72a25.94,25.94,0,0,1,3.18-2.36c.24.23.47.47.71.71C152.94,48.45,142.81,61.9,132.59,75.3Zm86.13,7-3.44.92c.43-1.59.82-3,1.19-4.4a15.56,15.56,0,0,1,1.36-3.93,5.19,5.19,0,0,0,1.35-1.07c2.22-3.44,4.37-6.92,6.55-10.38a1.75,1.75,0,0,1,1.1-.79c-.25,2-.49,4-.75,6-.06.46-.17.92-.27,1.37-.32,1.61-.62,3-2.52,3.82a7.71,7.71,0,0,0-4.54,5.77A13,13,0,0,0,218.72,82.32Zm5.09-7.14.37.21-3.36,5.47C220.5,78.68,221.46,77,223.81,75.18Zm28.62-1.55c-1.84,3.12-5.05,3.21-8.06,3.7-2.5.41-5,.66-7.51,1.11-3.73.68-7.45,1.48-11.17,2.24-.64.12-1.27.29-1.84.42,1.16-2.48,2.25-4.9,3.45-7.27.22-.42.89-.66,1.4-.88,1.08-.48,2.18-.9,3.26-1.34,2.41,4.33,5.4,5.41,9.69,3.51.15.48.29,1,.5,1.64,6.39-9.48,16.73-18,22.46-18.43-1.67,2.83-2.67,6-6.53,6.41A37,37,0,0,0,252.93,66c-1.92.51-2,.68-1.05,2.74l6.39-2.07.21.26-4.81,5.36A9,9,0,0,0,252.43,73.63Zm25.9-3c-1,3.94-4.24,3.24-7,3.52s-5.32.45-8,.64c-.74.06-1.5,0-2.38,0,5.14-4.06,14.82-8.54,19-8.66C279.37,67.71,278.71,69.13,278.33,70.62Z" style="fill: #00274c"/>
        <path d="M202.8,112.1c-6.11-1.89-12.48-2.39-18.85-2.55A142.67,142.67,0,0,0,161.24,111a181.33,181.33,0,0,0-25.09,5c-6.24,1.73-12.47,3.48-18.62,5.49-4.61,1.5-9.08,3.44-13.62,5.15-1.13.43-2.3.73-3.53,1.12.48-1.22.86-2.35,1.36-3.41,2.6-5.52,5.28-11,7.83-16.53,2.1-4.54,4.07-9.13,6.07-13.71q2.85-6.52,5.65-13.06c1.07-2.48,1-2.52-1.57-3.61-5,5.39-9.88,11-16.41,15.45.29-.82.44-1.3.63-1.76,1-2.43,2-4.86,3.07-7.27.51-1.18.22-1.86-1.31-2.22-1.5,3.28-3,6.55-4.49,9.86-.38.87-.83,1.84.24,2.65s2.21,1.31,3.5.33c.74-.57,1.58-1,2.28-1.62,2.91-2.5,5.78-5,8.66-7.57l.14.16c-.45.92-.93,1.82-1.35,2.75-2.15,4.7-4.27,9.43-6.44,14.13-1.1,2.4-2.34,4.74-3.45,7.14-1.6,3.46-3.12,7-4.7,10.43-1.32,2.9-2.7,5.78-4,8.69a3.39,3.39,0,0,1-2.1,2.08A43.26,43.26,0,0,0,88.79,133c-4.59,2.36-9.22,4.66-13.72,7.2-5.7,3.22-11.44,6.42-16.88,10.05a170.34,170.34,0,0,0-21,16.37A87.69,87.69,0,0,0,23.74,182a31.76,31.76,0,0,0-5.6,13.68c-.58,4.47,1.29,9.44,6.05,11.24,4.17,1.58,8.38,1.33,12.56.33a39.13,39.13,0,0,0,12.32-5.73,61.66,61.66,0,0,0,12.58-10.73,182.07,182.07,0,0,0,12.06-15.35c3.23-4.56,6-9.46,8.84-14.29s5.71-10,8.44-15.11c2.25-4.2,4.37-8.48,6.46-12.77a4,4,0,0,1,2.27-2.12c2.83-1.1,5.62-2.29,8.47-3.29,6.43-2.26,12.82-4.63,19.34-6.59s12.86-3.57,19.38-5A181.85,181.85,0,0,1,166,113c6.52-.7,13.12-.86,19.69-.93a56.08,56.08,0,0,1,22.88,4.07c5.95,2.53,9.29,7,8.87,13.8-.3,4.87-2.38,9.06-4.71,13.13a49.48,49.48,0,0,1-5.26,7.38c-4,4.76-7.94,9.63-12.39,14-6.64,6.46-13.51,12.71-20.61,18.67a286.9,286.9,0,0,1-42.87,29.6c-2.52,1.43-5.06,2.82-7.59,4.23a3.44,3.44,0,0,0,1.64-.51c8.6-4.87,17.41-9.42,25.73-14.73,9.5-6.06,18.66-12.68,27.76-19.33A169,169,0,0,0,192.72,171c4.39-4,8.63-8.17,12.73-12.46,2.46-2.59,4.55-5.54,6.76-8.36,3.89-5,7.11-10.25,8.08-16.68a14.92,14.92,0,0,0-2.17-10.83C214.47,117.16,209,114,202.8,112.1ZM90.44,139.78c-2.52,5-5,10-7.62,14.84-2.42,4.49-4.9,9-7.66,13.25-3.86,6-7.72,12-12.07,17.61-6.48,8.35-14.15,15.45-24,19.7-3.67,1.58-7.47,2.49-11.52,1.41a8.91,8.91,0,0,1-6.61-9.1c.27-6,2.94-11,6.39-15.67a91,91,0,0,1,7.82-9.36c3.43-3.5,7.16-6.74,10.9-9.93a145.47,145.47,0,0,1,22.2-15.35Q75.62,143,83.1,138.9c2.62-1.42,5.34-2.65,8-3.93A15,15,0,0,1,93,134.4C92.08,136.4,91.29,138.11,90.44,139.78Z" style="fill: #00274c"/>
      </g>
    </g>
  </g>
</svg>
