<svg xmlns="http://www.w3.org/2000/svg" viewBox="0 0 367.53 184.09">
  <g id="Layer_2" data-name="Layer 2">
    <g id="Layer_1-2" data-name="Layer 1">
      <g>
        <path d="M353.87,147.45a3.57,3.57,0,0,0-.7,1.19,16,16,0,0,1-9.23,7.86A48.52,48.52,0,0,1,328.57,159c-13.9.37-27.61-1.39-41.27-3.82a240.69,240.69,0,0,1-58.13-18.37c-9.18-4.18-18.48-8.12-27.75-12.1-2.5-1.08-5.11-1.93-7.68-2.89a1.76,1.76,0,0,1,.16-.48q7.35-10.53,14.74-21A1.79,1.79,0,0,1,210,99.6c6.5.46,13,.75,19.51,1.53q13.23,1.61,26.37,3.85a109,109,0,0,1,22.85,6.16,27.05,27.05,0,0,1,5.43,3.09c1.62,1.14,1.62,2.51.21,3.84A12.45,12.45,0,0,1,282,119.8c-1.37.79-2.84,1.41-4.18,2.23-.39.24-.5.94-.73,1.42.49.17,1.14.62,1.43.45a52.12,52.12,0,0,0,7.46-4.55c2.26-1.84,2-4.62-.2-6.53a14.64,14.64,0,0,0-4.21-2.71A145,145,0,0,0,266,105c-7.51-1.76-15.14-3.1-22.77-4.25-7.32-1.11-14.7-1.77-22.06-2.56-3.46-.37-6.93-.58-10.55-.87.25-.43.43-.75.62-1.06q5.2-8.19,10.39-16.4,10.65-16.81,21.32-33.62a4.94,4.94,0,0,1,1.4-1.51,225.77,225.77,0,0,0,29-21.61c5-4.45,9.89-9,13.57-14.63a18,18,0,0,0,2.18-4.78A2.8,2.8,0,0,0,285.61.1a22.48,22.48,0,0,0-5.31,2,54.23,54.23,0,0,0-11.22,8.75c-9.84,9.3-18.07,19.95-25.81,31a8.86,8.86,0,0,1-2.77,2.65q-15.56,8.64-31.21,17.14a2.12,2.12,0,0,1-1.16.42c-1.8-.27-2.91,1.06-4.25,1.79-.34.19-.63,1.15-.45,1.38a1.72,1.72,0,0,0,1.47.57,17.52,17.52,0,0,0,3.49-1.39q14.67-7.81,29.29-15.7l1.41-.73c-.28.48-.39.68-.51.87q-8.33,13.24-16.67,26.49-6.56,10.4-13.17,20.75a2.32,2.32,0,0,1-1.52,1.08,275.89,275.89,0,0,0-35.1.74c-9.3.93-18.6,2-27.85,3.37a222.81,222.81,0,0,0-37.21,9c-3.9,1.29-7.78,2.69-11.77,4.08.18-.41.31-.74.47-1,2.57-4.75,5.26-9.44,7.68-14.26,3.63-7.24,7.09-14.56,10.58-21.87a9,9,0,0,0,.81-2.93A1.38,1.38,0,0,0,113,72.68a11.29,11.29,0,0,0-2.7,1.08c-3.52,1.92-7,3.89-10.51,5.83-.7.39-1.45.69-2.17,1a19.29,19.29,0,0,1,1.74-3.9c.13-.23.36-.52.58-.55,1.5-.23,1.18-1.37,1.11-2.29a1.42,1.42,0,0,0-.74-1,1.29,1.29,0,0,0-1.19.39c-1.41,2.55-2.86,5.1-4,7.76-.54,1.25.79,2.36,2.16,2a11.68,11.68,0,0,0,2.33-.93c2.38-1.26,4.74-2.58,7.1-3.88l5.93-3.27c-.15.48-.18.65-.25.8-.43,1-.85,2.07-1.32,3.08-5.52,12.12-11.7,23.91-18.2,35.53a4.62,4.62,0,0,1-2.37,2.16c-15,6.42-29.19,14.32-41.51,25.2-6.72,5.93-12.69,12.51-16.75,20.61-2.27,4.53-4,9.24-3.11,14.49A8.46,8.46,0,0,0,38.82,184c4.09-.52,7.47-2.5,10.63-4.93,6.24-4.79,11.27-10.73,16-17C74.87,149.54,82.86,136,90.66,122.4c2.92-5.11,2.88-5.1,8.19-7.07,22.65-8.41,46.13-13.06,70.13-15,9.8-.81,19.66-.84,29.49-1.17,2.64-.1,5.28,0,8.24,0-.44.76-.6,1.08-.8,1.38-4.46,6.37-9,12.72-13.36,19.14a2.1,2.1,0,0,1-2.85.92c-15.31-4.91-30.92-6.66-46.88-4.11a74.36,74.36,0,0,0-27.93,10A35.83,35.83,0,0,0,103,137.82c-4,6.55-4,13.58.36,19.06a23.37,23.37,0,0,0,12.69,8c8.09,2.2,16.14,1.59,24.11-.7,12.64-3.64,23.33-10.6,33-19.34a152.57,152.57,0,0,0,18.09-20,1.78,1.78,0,0,1,2.43-.77c3.27,1.32,6.64,2.41,9.88,3.81,9.82,4.24,19.6,8.6,29.4,12.89a223.43,223.43,0,0,0,37,12.85,265.75,265.75,0,0,0,40.41,6.89c9.45.79,18.9,1.27,28.31-.35a26.17,26.17,0,0,0,11.46-4.45,18.45,18.45,0,0,0,5.58-7.22c.18-.39-.18-1-.29-1.55A5.42,5.42,0,0,0,353.87,147.45ZM253.62,31.38A145.67,145.67,0,0,1,275.16,8.32c2.94-2.44,6-4.8,9.72-5.9a7.33,7.33,0,0,1,2,0,6.81,6.81,0,0,1-.17,2c-1.56,3.83-4.28,6.87-7.09,9.79a180.32,180.32,0,0,1-28,23.16c-1.34.93-2.71,1.82-4.07,2.72-.05,0-.14,0-.47,0C249.35,37.08,251.44,34.2,253.62,31.38ZM83.1,131.19C76.66,142,70,152.79,62.24,162.75c-4.72,6-9.67,11.91-16.21,16.09a23.75,23.75,0,0,1-6.72,2.9c-4.48,1.17-8-1.75-8.28-6.38-.27-5.31,1.69-10,4.26-14.39,5.07-8.78,12.2-15.73,20.1-21.94a155.78,155.78,0,0,1,33.94-19.8c.19-.08.41-.13.88-.28C87.76,123.17,85.46,127.2,83.1,131.19ZM181.62,133c-7.66,8.76-16.22,16.46-26.35,22.31a61.94,61.94,0,0,1-23.08,8.3c-8,1-15.75.37-22.76-4.09-3.5-2.22-6.09-5.2-7-9.38-1-4.94.7-9.18,3.56-13,4.2-5.66,9.92-9.37,16.2-12.31a79.37,79.37,0,0,1,27.25-7.06,100.88,100.88,0,0,1,40.18,5s.07.06.32.34C187.19,126.42,184.47,129.79,181.62,133Z" style="fill: #00274c"/>
        <path d="M23.43,33c-1.86.13-3.72.25-5.58.4-2.18.17-4.37.37-6.55.56C44,25.64,77.17,21.25,110.92,19.72c-1.52,2.34-3,4.41-4.26,6.63-.82,1.46-1.1,3.23-1.92,4.68C101,37.64,97.19,44.2,93.37,50.75,80.46,72.88,66.94,94.62,52.31,115.67a2.5,2.5,0,0,0-.56.94c0,.4,0,1.07.25,1.19a1.53,1.53,0,0,0,1.34-.08,6.74,6.74,0,0,0,1.19-1.53Q73.85,88.26,91,58.94q10.5-18,20.82-36a18.48,18.48,0,0,0,1.07-3.23c.54,0,1.56-.1,2.58-.13a392,392,0,0,1,60.3,2.74,236.6,236.6,0,0,1,28.85,5.08c4.11,1.05,8.19,2.21,11.8,4.55,2.31,1.5,2.34,2.78.11,4.35A25.31,25.31,0,0,1,207.69,40C203,41.09,198.16,42,193.41,43.1c-.48.11-.83.8-1.24,1.22.51.28,1.09.88,1.52.79,6.11-1.37,12.25-2.66,18.28-4.36a23.16,23.16,0,0,0,6.72-3.57c2.26-1.59,2.13-4.44,0-6.21a14.29,14.29,0,0,0-2.2-1.47c-5.61-3.12-11.81-4.46-18-5.75a252.91,252.91,0,0,0-31.35-4.53c-9.76-.78-19.53-1.58-29.31-1.85A399.41,399.41,0,0,0,90,18.94c-6.87.63-13.74,1.2-20.58,2.07-8.07,1-16.12,2.26-24.16,3.56A352.22,352.22,0,0,0,7.42,32.73,64.6,64.6,0,0,0,1,35c-.43.17-.65.89-1,1.35.5.32,1,.85,1.51.91A13.74,13.74,0,0,0,4.29,37C9.2,36.51,14.11,36,19,35.49c1.62-.16,3.27-.13,4.88-.33.46-.06.85-.64,1.27-1-.39-.37-.77-.77-1.19-1.11C23.86,33,23.61,33,23.43,33Z" style="fill: #00274c"/>
        <path d="M276.22,81.18c-1,0-2.14,0-2.58-1.2A3,3,0,0,1,275,76.64a37.07,37.07,0,0,0,4.48-3.71c.42-.42.19-1.49.26-2.26-.78-.06-1.77-.44-2.29-.11a11.73,11.73,0,0,0-3.54,3.08,8.72,8.72,0,0,1-5.38,3.61c-.44.12-.71.86-1.06,1.31.51.25,1,.73,1.55.71a9.06,9.06,0,0,0,2.24-.66c.59,4,2.55,5.3,6.54,4.58a25,25,0,0,0,7.92-3.33c3.19-1.82,6.4-3.61,9.66-5.3A23.22,23.22,0,0,1,299,73.34l.38.5a48.13,48.13,0,0,1-3.45,4.07c-.46.45-1.45.39-2.21.49-.92.12-1.86.12-2.78.24a15.55,15.55,0,0,0-3.14.59c-.36.13-.49.93-.72,1.42.45.21.93.63,1.35.58,1.43-.14,2.83-.45,4.24-.7l.18.34c-.95.8-1.9,1.6-2.86,2.39-2.74,2.24-5.52,4.44-8.2,6.76-.41.36-.35,1.27-.51,1.93.64,0,1.43.27,1.9,0a37.68,37.68,0,0,1,16.24-5.07c4.74-.37,9.41-.07,13.83,1.88,2.3,1,4,2.68,4.29,5.28a19.94,19.94,0,0,1-.09,4.88,47.23,47.23,0,0,1-6.71,18c-3.23,5.31-6.95,10.17-12.86,12.84-.37.16-.47.94-.69,1.44.52.14,1.21.56,1.53.37,2.19-1.31,4.58-2.46,6.37-4.21a49.08,49.08,0,0,0,14.67-29.86c.69-5.6-1.58-9.22-6.71-11.19A31.15,31.15,0,0,0,297.59,85c-2.77.35-5.5,1.05-8.37,1.61a23.47,23.47,0,0,0,3-2.42c2.69-3,5.87-4.12,10-4,11.05.24,22.11,0,33.16.09,5.93.05,11.85.36,17.77.54.77,0,1.65-.06,1.67-1s-.83-1.06-1.62-1.09c-5.22-.17-10.44-.48-15.67-.51-12.5-.07-25,0-37.51,0-.34,0-.67,0-1-.07a33.57,33.57,0,0,0,2.13-3.38c.93-1.93-.06-3.48-2.17-3.26a12.54,12.54,0,0,0-4.26,1.2c-3.88,2-7.66,4.21-11.5,6.3C281,80.06,278.79,81.19,276.22,81.18Z" style="fill: #00274c"/>
        <path d="M152.16,83.24a1.78,1.78,0,0,0,1.51-.59,15,15,0,0,0,1.46-2.53,10.65,10.65,0,0,1,6.41-5.68c3.82-1.13,7.68-2.12,11.55-3.09,3.14-.79,6.33-1.42,9.47-2.24.43-.11.68-.89,1-1.35-.54-.2-1.12-.62-1.63-.56-.91.11-1.76.59-2.67.78-4.18.86-8.39,1.58-12.55,2.55a25.27,25.27,0,0,0-9.51,3.82,27.64,27.64,0,0,0-2.67,2.52c-.38-.7-.66-1.93-1.18-2a3.5,3.5,0,0,0-2.4.91c-1.3,1.06-2.36,2.39-3.65,3.46a20.11,20.11,0,0,1-3.78,2.59c-1.41.72-2.08.2-1.85-1.33a6.26,6.26,0,0,1,1-2.38c1.31-2,2.73-3.87,4.07-5.83.5-.73.88-1.73-.1-2.16a2.32,2.32,0,0,0-2.13.59c-1.36,1.75-2.47,3.69-3.73,5.53a19.6,19.6,0,0,1-2.66,3.49,13.71,13.71,0,0,1-8.29,4c-1.92.14-2.6-.53-2.77-2.44-.25-3,.58-5.7,1.4-8.47a15.22,15.22,0,0,1,3.9-6.62,120,120,0,0,0,15.54-19.4,59.73,59.73,0,0,0,3.65-7.18,2.2,2.2,0,0,0-.59-2.8,2.09,2.09,0,0,0-2.72.21,20.39,20.39,0,0,0-3.64,3.23,126,126,0,0,0-15.83,25.9,6.72,6.72,0,0,1-1.48,2.14c-3.87,3.43-7.79,6.8-11.71,10.18-.55.48-1.14,1-.56,1.74s1.18.51,1.8,0c1.67-1.34,3.39-2.63,5-4,1.44-1.19,2.82-2.47,4.45-3.92-.42,1.68-.85,3-1.08,4.37a24.9,24.9,0,0,0-.35,4.31c.06,3.39,2.23,5.38,5.34,4.92a12.93,12.93,0,0,0,3.48-1c1.95-.91,3.8-2,5.69-3.06,1.2,2.49,2.64,3.06,5.24,1.81a16.92,16.92,0,0,0,3.26-2.13c1.29-1,2.47-2.24,3.8-3.47a35.82,35.82,0,0,0-.44,3.85A1.75,1.75,0,0,0,152.16,83.24Zm-3.09-44.6.61.42c-3.84,8.52-9.94,15.47-16.05,22.42C138.08,53.37,142.26,45.1,149.07,38.64Z" style="fill: #00274c"/>
        <path d="M249.61,76.93c-1.9,4.44-3.89,8.85-5.79,13.3a26.5,26.5,0,0,0-1.47,4.35c-.12.52.41,1.19.64,1.79a5.34,5.34,0,0,0,1.63-.71A6.93,6.93,0,0,0,245.8,94c1.2-2.1,2.41-4.2,3.55-6.33.6-1.13,1.23-1.9,2.73-1.76a4.39,4.39,0,0,0,2.49-.72c2.62-1.58,5.24-3.2,7.72-5a11,11,0,0,0,2.71-3c1.44-2.22.44-4.38-2.18-4.9a6.87,6.87,0,0,0-5,1.17c-2.52,1.56-4.22,3.91-5.94,6.24-.35.47-.79.87-1.19,1.31l-.31-.24.27-.72a68.47,68.47,0,0,0,2.51-6.79c.73-2.79-.52-4.28-3.38-4.12-3.1.17-6.17.63-9.4,1-.71-1.06-1.5-1.07-2.3.28-.5.84-.9,1.73-1.33,2.6-1,2.09-2.15,4.13-3,6.28a2.46,2.46,0,0,0,.62,3.07c1,.76,2,.32,3-.12a4.21,4.21,0,0,0,.83-.51c3-2.36,4.47-5.3,3.16-9.67,3.15-.27,6-.55,8.94-.76,1.07-.08,1.07.76.86,1.45A42,42,0,0,1,249.61,76.93Zm8.21-.86A4.81,4.81,0,0,1,262,74.41c.51.07,1.25.25,1.41.6a1.72,1.72,0,0,1-.44,1.46A32.14,32.14,0,0,1,259.16,80,20.59,20.59,0,0,1,252,83.82l-.4-.47C253.66,80.91,255.66,78.42,257.82,76.07Zm-22.21,4.46c.55-2.89,2.28-5.08,3.66-7.75C240.31,76.35,238.8,79.45,235.61,80.53Z" style="fill: #00274c"/>
        <path d="M366.24,81.61c-.23-.1-.9.37-1.07.73a4.84,4.84,0,0,0-.44,2,1.56,1.56,0,0,0,.64,1.18,1.24,1.24,0,0,0,1.15-.37,15.89,15.89,0,0,0,1-2.38A5.14,5.14,0,0,0,366.24,81.61Z" style="fill: #00274c"/>
      </g>
    </g>
  </g>
</svg>
